<svg width="24" height="25" viewBox="0 0 24 25" fill="none" xmlns="http://www.w3.org/2000/svg">
<path opacity="0.32" d="M2.162 8.67041C2 9.77341 2 11.2204 2 13.1704C2 16.9414 2 18.8274 3.172 19.9984C4.343 21.1704 6.229 21.1704 10 21.1704H14C17.771 21.1704 19.657 21.1704 20.828 19.9984C22 18.8274 22 16.9414 22 13.1704C22 11.2204 22 9.77341 21.838 8.67041C19.561 10.1504 18.102 11.0934 16.75 11.6754V12.1704C16.7511 12.2689 16.7327 12.3666 16.696 12.458C16.6593 12.5494 16.6049 12.6327 16.536 12.7031C16.3968 12.8452 16.2069 12.9263 16.008 12.9284C15.8091 12.9305 15.6175 12.8535 15.4753 12.7144C15.3332 12.5752 15.2521 12.3853 15.25 12.1864C13.1197 12.748 10.8803 12.748 8.75 12.1864C8.74788 12.3853 8.66683 12.5752 8.52467 12.7144C8.38252 12.8535 8.19091 12.9305 7.992 12.9284C7.79309 12.9263 7.60317 12.8452 7.46401 12.7031C7.32486 12.5609 7.24788 12.3693 7.25 12.1704V11.6744C5.898 11.0944 4.44 10.1504 2.162 8.67041Z" fill="#C3D5E1"/>
<path fill-rule="evenodd" clip-rule="evenodd" d="M10.5811 2.4204H10.5611C10.4471 2.4204 10.3591 2.4204 10.2751 2.4254C9.75548 2.45699 9.25555 2.63539 8.83336 2.93986C8.41116 3.24433 8.08406 3.66238 7.89005 4.1454C7.84743 4.2588 7.80742 4.37317 7.77005 4.4884L7.76605 4.5004C7.6629 4.77306 7.48851 5.01306 7.26105 5.1954C7.03405 5.2034 6.81705 5.2124 6.60905 5.2254C4.96505 5.3214 3.92205 5.5914 3.17105 6.3424C2.92705 6.5864 2.73305 6.8624 2.58105 7.1804C2.63951 7.20046 2.69527 7.22767 2.74705 7.2614C4.84705 8.6264 6.16705 9.4814 7.26305 10.0284C7.29773 9.84456 7.39986 9.68031 7.54941 9.5679C7.69896 9.45548 7.88512 9.40302 8.07136 9.4208C8.2576 9.43859 8.43046 9.52534 8.55603 9.66402C8.6816 9.80271 8.7508 9.98332 8.75005 10.1704V10.6284C10.8701 11.2684 13.1301 11.2684 15.2501 10.6284V10.1704C15.2506 9.98423 15.3204 9.80491 15.4458 9.66733C15.5713 9.52974 15.7434 9.44373 15.9287 9.42602C16.114 9.40831 16.2993 9.46017 16.4486 9.57151C16.5978 9.68284 16.7003 9.8457 16.7361 10.0284C17.8331 9.4804 19.1531 8.6264 21.2531 7.2614C21.3052 7.22763 21.3613 7.20042 21.4201 7.1804C21.2719 6.86937 21.0717 6.58595 20.8281 6.3424C20.0781 5.5924 19.0351 5.3224 17.3911 5.2244C17.1941 5.2134 16.9881 5.2044 16.7731 5.1964C16.5214 4.99139 16.3271 4.72474 16.2091 4.4224L16.2051 4.4134C16.1691 4.3064 16.1411 4.2224 16.1101 4.1444C15.9159 3.66157 15.5887 3.24373 15.1665 2.93944C14.7444 2.63515 14.2445 2.4569 13.7251 2.4254C13.6298 2.42091 13.5344 2.41924 13.4391 2.4204H10.5811ZM14.8181 4.9864L14.8131 4.9754L14.8081 4.9634L14.8031 4.9514L14.8001 4.9414L14.7981 4.9364L14.7941 4.9244L14.7901 4.9124L14.7881 4.9064L14.7851 4.8984L14.7831 4.8914L14.7811 4.8854C14.7616 4.82455 14.7406 4.76419 14.7181 4.7044C14.6299 4.48483 14.4812 4.29478 14.2894 4.15635C14.0975 4.01792 13.8702 3.93679 13.6341 3.9224C13.5624 3.9199 13.4907 3.91923 13.4191 3.9204H10.5811C10.4381 3.9204 10.3981 3.9204 10.3661 3.9224C10.1299 3.93679 9.90264 4.01792 9.71075 4.15635C9.51886 4.29478 9.3702 4.48483 9.28205 4.7044L9.27905 4.7114L9.27105 4.7324C9.24337 4.80849 9.21736 4.88517 9.19305 4.9624L9.19205 4.9684L9.18905 4.9754L9.18705 4.9834L9.18505 4.9894L9.18105 5.0014L9.17605 5.0134L9.17505 5.0184L9.17105 5.0284L9.16605 5.0404L9.16205 5.0524L9.15705 5.0624C9.14312 5.0987 9.12845 5.13571 9.11305 5.1714L10.0001 5.1704H14.8961C14.8677 5.10996 14.8423 5.04859 14.8181 4.9864Z" fill="#C3D5E1"/>
</svg>
