<svg width="24" height="25" viewBox="0 0 24 25" fill="none" xmlns="http://www.w3.org/2000/svg">
<path opacity="0.32" fill-rule="evenodd" clip-rule="evenodd" d="M4.12319 2.4141C5.3177 2.29124 7.30475 2.17041 10.5 2.17041C13.6952 2.17041 15.6823 2.29124 16.8768 2.4141C17.8972 2.51904 18.6398 3.2759 18.7572 4.29486C18.8797 5.35816 19 6.96371 19 9.17041C19 11.3771 18.8797 12.9827 18.7572 14.046C18.6398 15.0649 17.8973 15.8218 16.877 15.9267C15.822 16.0352 14.1489 16.1422 11.571 16.1657C11.1714 16.1693 10.7875 16.3296 10.507 16.6141L8.816 18.3289C8.08185 19.0734 6.8125 18.6411 6.6853 17.6033L6.55145 16.5118C6.52175 16.2694 6.3197 16.0842 6.0759 16.0715C5.26545 16.0295 4.62502 15.9783 4.12397 15.9268C3.10365 15.8219 2.36022 15.0649 2.24278 14.046C2.12023 12.9827 2 11.3771 2 9.17041C2 6.96371 2.12023 5.35816 2.24278 4.29486C2.36022 3.2759 3.10287 2.51904 4.12319 2.4141ZM7 6.17041C6.4477 6.17041 6 6.61811 6 7.17041C6 7.72271 6.4477 8.17041 7 8.17041H14C14.5523 8.17041 15 7.72271 15 7.17041C15 6.61811 14.5523 6.17041 14 6.17041H7ZM7 10.6704C6.4477 10.6704 6 11.1181 6 11.6704C6 12.2227 6.4477 12.6704 7 12.6704H11C11.5523 12.6704 12 12.2227 12 11.6704C12 11.1181 11.5523 10.6704 11 10.6704H7Z" fill="#C3D5E1"/>
<path d="M5.99927 7.17041C5.99927 6.61811 6.44697 6.17041 6.99927 6.17041H13.9993C14.5516 6.17041 14.9993 6.61811 14.9993 7.17041C14.9993 7.72271 14.5516 8.17041 13.9993 8.17041H6.99927C6.44697 8.17041 5.99927 7.72271 5.99927 7.17041Z" fill="#C3D5E1"/>
<path d="M5.99927 11.6704C5.99927 11.1181 6.44697 10.6704 6.99927 10.6704H10.9993C11.5516 10.6704 11.9993 11.1181 11.9993 11.6704C11.9993 12.2227 11.5516 12.6704 10.9993 12.6704H6.99927C6.44697 12.6704 5.99927 12.2227 5.99927 11.6704Z" fill="#C3D5E1"/>
<path d="M10.0259 17.1012L10.5063 16.6141C10.7868 16.3296 11.1707 16.1693 11.5703 16.1657C14.1481 16.1422 15.8213 16.0352 16.8763 15.9267C17.8966 15.8218 18.6391 15.0649 18.7565 14.046C18.8365 13.3513 18.9156 12.4252 18.9608 11.2512C19.4676 11.2813 19.8667 11.3166 20.1775 11.3516C20.803 11.4219 21.2617 11.8737 21.3395 12.4983C21.4208 13.1512 21.4993 14.1699 21.4993 15.6704C21.4993 17.1709 21.4208 18.1896 21.3395 18.8425C21.2617 19.4671 20.8024 19.9191 20.1769 19.9893C19.7588 20.0363 19.1811 20.0841 18.3964 20.1187C18.1644 20.129 17.9675 20.2956 17.9226 20.5235L17.7519 21.3894C17.6399 21.9573 16.9541 22.1896 16.52 21.8068L15.0714 20.5294C14.8031 20.2928 14.4578 20.1606 14.1001 20.1521C12.7852 20.1209 11.9012 20.0544 11.3225 19.9894C10.697 19.9192 10.2369 19.4671 10.1591 18.8425C10.1068 18.4232 10.0558 17.853 10.0259 17.1012Z" fill="#C3D5E1"/>
</svg>
