<svg width="20" height="20" viewBox="0 0 20 20" fill="none" xmlns="http://www.w3.org/2000/svg">
<path d="M14.4311 13.5723L5.80259 4.9437C5.02754 4.16866 3.93892 3.99614 3.37522 4.55984C2.81221 5.12285 2.98473 6.21147 3.75978 6.98652L12.3883 15.615C13.1633 16.3901 14.252 16.5626 14.815 15.9996C15.3787 15.4359 15.2062 14.3473 14.4311 13.5723Z" fill="#637381"/>
<path d="M12.5515 4.78077L3.92295 13.4093C3.1479 14.1844 2.97539 15.273 3.53909 15.8367C4.10209 16.3997 5.19072 16.2272 5.96577 15.4521L14.5943 6.82362C15.3693 6.04857 15.5419 4.95994 14.9788 4.39694C14.4151 3.83324 13.3266 4.00572 12.5515 4.78077Z" fill="#637381"/>
</svg>
