<svg width="20" height="20" viewBox="0 0 20 20" fill="none" xmlns="http://www.w3.org/2000/svg">
<path d="M11.6667 13.75C11.9877 13.7502 12.2964 13.8738 12.5287 14.0953C12.761 14.3169 12.8992 14.6193 12.9146 14.9399C12.9301 15.2606 12.8215 15.5749 12.6116 15.8177C12.4016 16.0605 12.1062 16.2132 11.7867 16.2442L11.6667 16.25H8.33337C8.01236 16.2498 7.70371 16.1262 7.47139 15.9047C7.23906 15.6831 7.10086 15.3807 7.08544 15.0601C7.07001 14.7394 7.17853 14.4251 7.38852 14.1823C7.59851 13.9395 7.89386 13.7868 8.21337 13.7558L8.33337 13.75H11.6667ZM14.1667 8.75C14.4982 8.75 14.8162 8.8817 15.0506 9.11612C15.285 9.35054 15.4167 9.66848 15.4167 10C15.4167 10.3315 15.285 10.6495 15.0506 10.8839C14.8162 11.1183 14.4982 11.25 14.1667 11.25H5.83337C5.50185 11.25 5.18391 11.1183 4.94949 10.8839C4.71507 10.6495 4.58337 10.3315 4.58337 10C4.58337 9.66848 4.71507 9.35054 4.94949 9.11612C5.18391 8.8817 5.50185 8.75 5.83337 8.75H14.1667ZM16.6667 3.75C16.9982 3.75 17.3162 3.8817 17.5506 4.11612C17.785 4.35054 17.9167 4.66848 17.9167 5C17.9167 5.33152 17.785 5.64946 17.5506 5.88388C17.3162 6.1183 16.9982 6.25 16.6667 6.25H3.33337C3.00185 6.25 2.68391 6.1183 2.44949 5.88388C2.21507 5.64946 2.08337 5.33152 2.08337 5C2.08337 4.66848 2.21507 4.35054 2.44949 4.11612C2.68391 3.8817 3.00185 3.75 3.33337 3.75H16.6667Z" fill="#212B36"/>
</svg>
