<svg width="87" height="88" viewBox="0 0 87 88" fill="none" xmlns="http://www.w3.org/2000/svg">
<path fill-rule="evenodd" clip-rule="evenodd" d="M47.7506 0V0.0872156V8.80878C66.8944 11.1636 80.4565 28.5631 78.1016 47.7069C76.0957 63.5802 63.6238 76.1828 47.7506 78.058V86.7795C71.7349 84.3811 89.178 63.1005 86.7796 39.1162C84.8172 18.4025 68.3771 2.04957 47.7506 0ZM39.0292 0.131006C30.5256 0.959554 22.4146 4.23014 15.7862 9.72472L22.0221 16.1787C26.9062 12.254 32.7932 9.72472 39.0292 8.85257V0.131006ZM9.63733 15.8732C4.14274 22.5016 0.872156 30.5691 0 39.1162H8.72156C9.55011 32.9239 11.9921 27.0368 15.8732 22.1091L9.63733 15.8732ZM0.0435226 47.8377C0.915679 56.3848 4.27348 64.4522 9.68085 71.0806L15.8732 64.8447C12.0357 59.917 9.55003 54.03 8.76509 47.8377H0.0435226ZM22.0221 71.2553L15.7862 77.2295C22.371 82.7241 30.482 86.1691 39.0292 87.0849V78.3633C32.8369 77.5784 26.9498 75.0928 22.0221 71.2553Z" fill="#FF8389"/>
<path fill-rule="evenodd" clip-rule="evenodd" d="M40.1371 17.8817L40.1371 52.8246L40.1371 57.5246L43.7318 57.5245L47.7272 57.5245L47.7272 17.8817L40.1371 17.8817Z" fill="#FF8389"/>
<path fill-rule="evenodd" clip-rule="evenodd" d="M43.9317 61.8308C41.8479 61.8308 40.1367 63.52 40.1367 65.6038L40.1367 65.7819C40.1366 67.7674 41.7462 69.377 43.7317 69.377L43.9537 69.377C46.0375 69.377 47.7268 67.6877 47.7268 65.6039C47.7268 63.52 46.0156 61.8308 43.9317 61.8308Z" fill="#FF8389"/>
</svg>
