<svg width="20" height="20" viewBox="0 0 20 20" fill="none" xmlns="http://www.w3.org/2000/svg">
<path opacity="0.32" d="M12.7332 3.75H3.9335C3.14308 3.75 2.5 4.21714 2.5 4.79202C2.5 5.36619 3.14308 5.83333 3.9335 5.83333H12.7332C13.5236 5.83333 14.1667 5.36619 14.1667 4.79202C14.1667 4.21712 13.5236 3.75 12.7332 3.75Z" fill="#637381"/>
<path d="M16.0665 8.95837H7.26683C6.47641 8.95837 5.83333 9.42551 5.83333 10.0004C5.83333 10.5746 6.47641 11.0417 7.26683 11.0417H16.0665C16.8569 11.0417 17.5 10.5746 17.5 10.0004C17.5 9.42549 16.857 8.95837 16.0665 8.95837Z" fill="#637381"/>
<path d="M12.7332 14.1667H3.9335C3.14308 14.1667 2.5 14.6338 2.5 15.2087C2.5 15.7829 3.14308 16.25 3.9335 16.25H12.7332C13.5236 16.25 14.1667 15.7829 14.1667 15.2087C14.1667 14.6338 13.5236 14.1667 12.7332 14.1667Z" fill="#637381"/>
</svg>
