<svg width="16" height="16" viewBox="0 0 16 16" fill="none" xmlns="http://www.w3.org/2000/svg">
<path fill-rule="evenodd" clip-rule="evenodd" d="M8.00004 14.6602C11.682 14.6602 14.6667 11.6756 14.6667 7.99357C14.6667 4.31157 11.682 1.3269 8.00004 1.3269C4.31804 1.3269 1.33337 4.31157 1.33337 7.99357C1.33337 11.6756 4.31804 14.6602 8.00004 14.6602ZM8.50004 5.3269C8.50004 5.1943 8.44736 5.06712 8.35359 4.97335C8.25983 4.87958 8.13265 4.8269 8.00004 4.8269C7.86743 4.8269 7.74026 4.87958 7.64649 4.97335C7.55272 5.06712 7.50004 5.1943 7.50004 5.3269V7.99357C7.50004 8.12624 7.55271 8.25357 7.64671 8.3469L9.31337 10.0136C9.35915 10.0627 9.41435 10.1021 9.47568 10.1294C9.53701 10.1568 9.60322 10.1714 9.67036 10.1726C9.73749 10.1738 9.80418 10.1615 9.86644 10.1363C9.9287 10.1112 9.98525 10.0737 10.0327 10.0263C10.0802 9.97878 10.1176 9.92223 10.1428 9.85997C10.1679 9.79771 10.1803 9.73102 10.1791 9.66389C10.1779 9.59675 10.1632 9.53054 10.1359 9.46921C10.1086 9.40788 10.0692 9.35268 10.02 9.3069L8.50004 7.7869V5.3269Z" fill="#919EAB"/>
</svg>
