<svg width="33" height="32" viewBox="0 0 33 32" fill="none" xmlns="http://www.w3.org/2000/svg">
<path fill-rule="evenodd" clip-rule="evenodd" d="M16.5001 13.6667C16.7653 13.6667 17.0197 13.7721 17.2072 13.9596C17.3947 14.1472 17.5001 14.4015 17.5001 14.6667V16.3334H19.1667C19.432 16.3334 19.6863 16.4388 19.8739 16.6263C20.0614 16.8138 20.1667 17.0682 20.1667 17.3334C20.1667 17.5986 20.0614 17.853 19.8739 18.0405C19.6863 18.228 19.432 18.3334 19.1667 18.3334H17.5001V20.0001C17.5001 20.2653 17.3947 20.5196 17.2072 20.7072C17.0197 20.8947 16.7653 21.0001 16.5001 21.0001C16.2349 21.0001 15.9805 20.8947 15.793 20.7072C15.6054 20.5196 15.5001 20.2653 15.5001 20.0001V18.3334H13.8334C13.5682 18.3334 13.3138 18.228 13.1263 18.0405C12.9388 17.853 12.8334 17.5986 12.8334 17.3334C12.8334 17.0682 12.9388 16.8138 13.1263 16.6263C13.3138 16.4388 13.5682 16.3334 13.8334 16.3334H15.5001V14.6667C15.5001 14.4015 15.6054 14.1472 15.793 13.9596C15.9805 13.7721 16.2349 13.6667 16.5001 13.6667Z" fill="white"/>
<path fill-rule="evenodd" clip-rule="evenodd" d="M13.5374 28.0001H19.4627C23.6241 28.0001 25.7054 28.0001 27.2001 27.0201C27.845 26.5974 28.4004 26.0519 28.8347 25.4147C29.8334 23.9481 29.8334 21.9041 29.8334 17.8187C29.8334 13.7321 29.8334 11.6894 28.8347 10.2227C28.4005 9.58554 27.845 9.04006 27.2001 8.6174C26.2401 7.98673 25.0374 7.7614 23.1961 7.6814C22.3174 7.6814 21.5614 7.02806 21.3894 6.1814C21.258 5.56122 20.9164 5.00544 20.4225 4.608C19.9287 4.21055 19.3127 3.99581 18.6787 4.00006H14.3214C13.0041 4.00006 11.8694 4.9134 11.6107 6.1814C11.4387 7.02806 10.6827 7.6814 9.80408 7.6814C7.96408 7.7614 6.76141 7.98806 5.80008 8.6174C5.15557 9.04015 4.60058 9.58563 4.16675 10.2227C3.16675 11.6894 3.16675 13.7321 3.16675 17.8187C3.16675 21.9041 3.16675 23.9467 4.16541 25.4147C4.59741 26.0494 5.15208 26.5947 5.80008 27.0201C7.29475 28.0001 9.37608 28.0001 13.5374 28.0001ZM21.8334 17.3334C21.8334 18.7479 21.2715 20.1044 20.2713 21.1046C19.2711 22.1048 17.9146 22.6667 16.5001 22.6667C15.0856 22.6667 13.729 22.1048 12.7288 21.1046C11.7287 20.1044 11.1667 18.7479 11.1667 17.3334C11.1667 15.9189 11.7287 14.5624 12.7288 13.5622C13.729 12.562 15.0856 12.0001 16.5001 12.0001C17.9146 12.0001 19.2711 12.562 20.2713 13.5622C21.2715 14.5624 21.8334 15.9189 21.8334 17.3334ZM24.5001 12.3334C24.2349 12.3334 23.9805 12.4388 23.793 12.6263C23.6054 12.8138 23.5001 13.0682 23.5001 13.3334C23.5001 13.5986 23.6054 13.853 23.793 14.0405C23.9805 14.228 24.2349 14.3334 24.5001 14.3334H25.8334C26.0986 14.3334 26.353 14.228 26.5405 14.0405C26.7281 13.853 26.8334 13.5986 26.8334 13.3334C26.8334 13.0682 26.7281 12.8138 26.5405 12.6263C26.353 12.4388 26.0986 12.3334 25.8334 12.3334H24.5001Z" fill="white"/>
</svg>
