<svg width="162" height="49" viewBox="0 0 162 49" fill="none" xmlns="http://www.w3.org/2000/svg">
<path d="M114.967 46.5053C112.907 46.5053 111.419 46.0768 110.504 45.2198C109.59 44.3545 109.132 43.1514 109.132 41.6104C109.132 40.3331 109.392 39.336 109.911 38.619C110.438 37.9021 111.151 37.3953 112.05 37.0986C112.948 36.802 113.949 36.6537 115.053 36.6537C116.767 36.6537 118.049 36.9833 118.897 37.6425C119.754 38.2935 120.183 39.2289 120.183 40.4485C120.183 40.671 120.15 40.9347 120.084 41.2396C120.018 41.5362 119.952 41.6846 119.886 41.6846L110.121 41.5609C110.154 43.1843 110.574 44.2927 111.382 44.886C112.198 45.4794 113.389 45.776 114.954 45.776C115.877 45.776 116.648 45.6936 117.266 45.5288C117.892 45.3558 118.395 45.1662 118.774 44.9602C119.161 44.7459 119.445 44.577 119.627 44.4534C119.651 44.4369 119.684 44.4287 119.726 44.4287C119.816 44.4287 119.899 44.474 119.973 44.5647C120.055 44.6471 120.096 44.7377 120.096 44.8366C120.096 44.9272 120.055 45.0014 119.973 45.0591C119.882 45.1497 119.647 45.3145 119.268 45.5535C118.897 45.7843 118.358 46.0026 117.649 46.2087C116.949 46.4064 116.054 46.5053 114.967 46.5053ZM110.134 40.9553H119.454V40.3743C119.454 39.8222 119.314 39.3236 119.033 38.8786C118.753 38.4254 118.292 38.0628 117.649 37.7909C117.006 37.5189 116.141 37.383 115.053 37.383C113.529 37.383 112.342 37.6467 111.493 38.1741C110.653 38.7015 110.199 39.6285 110.134 40.9553Z" fill="white" stroke="#8A4DC5"/>
<path d="M100.999 46.5053C98.9385 46.5053 97.4511 46.0768 96.5364 45.2198C95.6217 44.3545 95.1643 43.1514 95.1643 41.6104C95.1643 40.3331 95.4239 39.336 95.943 38.619C96.4704 37.9021 97.1833 37.3953 98.0815 37.0986C98.9797 36.802 99.981 36.6537 101.085 36.6537C102.799 36.6537 104.081 36.9833 104.929 37.6425C105.786 38.2935 106.215 39.2289 106.215 40.4485C106.215 40.671 106.182 40.9347 106.116 41.2396C106.05 41.5362 105.984 41.6846 105.918 41.6846L96.1532 41.5609C96.1861 43.1843 96.6064 44.2927 97.414 44.886C98.2298 45.4794 99.4206 45.776 100.986 45.776C101.909 45.776 102.68 45.6936 103.298 45.5288C103.924 45.3558 104.427 45.1662 104.806 44.9602C105.193 44.7459 105.477 44.577 105.659 44.4534C105.683 44.4369 105.716 44.4287 105.758 44.4287C105.848 44.4287 105.931 44.474 106.005 44.5647C106.087 44.6471 106.128 44.7377 106.128 44.8366C106.128 44.9272 106.087 45.0014 106.005 45.0591C105.914 45.1497 105.679 45.3145 105.3 45.5535C104.929 45.7843 104.39 46.0026 103.681 46.2087C102.981 46.4064 102.086 46.5053 100.999 46.5053ZM96.1655 40.9553H105.486V40.3743C105.486 39.8222 105.346 39.3236 105.065 38.8786C104.785 38.4254 104.324 38.0628 103.681 37.7909C103.038 37.5189 102.173 37.383 101.085 37.383C99.5607 37.383 98.374 37.6467 97.5252 38.1741C96.6847 38.7015 96.2315 39.6285 96.1655 40.9553Z" fill="white" stroke="#8A4DC5"/>
<path d="M86.1162 46.3693C85.8854 46.3693 85.7412 46.2787 85.6835 46.0974C85.6341 45.9161 85.6094 45.7183 85.6094 45.5041V37.5931C85.6094 37.4036 85.6423 37.2429 85.7083 37.111C85.7824 36.9709 85.9349 36.9009 86.1656 36.9009C86.3469 36.9009 86.4623 36.9668 86.5117 37.0986C86.5694 37.2305 86.5982 37.3953 86.5982 37.5931V39.027C86.7795 38.3512 87.1133 37.8444 87.5995 37.5066C88.0939 37.1687 88.6296 36.9421 89.2064 36.8267C89.7833 36.7113 90.2859 36.6537 90.7144 36.6537C91.349 36.6537 91.8146 36.6866 92.1112 36.7525C92.4079 36.8185 92.6716 36.8844 92.9023 36.9503C93.0754 36.9998 93.1619 37.1234 93.1619 37.3211C93.1619 37.4283 93.1248 37.5272 93.0507 37.6178C92.9847 37.7085 92.8817 37.7538 92.7416 37.7538C92.7087 37.7538 92.6839 37.7538 92.6675 37.7538C92.6592 37.7455 92.6345 37.7373 92.5933 37.7291C92.2719 37.6384 91.9629 37.5684 91.6662 37.5189C91.3696 37.4695 91.0523 37.4448 90.7144 37.4448C89.742 37.4448 88.8768 37.6384 88.1186 38.0257C87.3687 38.4048 86.8619 39.0022 86.5982 39.8181V45.5041C86.5982 45.7183 86.5694 45.9161 86.5117 46.0974C86.454 46.2787 86.3222 46.3693 86.1162 46.3693Z" fill="white" stroke="#8A4DC5"/>
<path d="M70.863 46.3693C70.624 46.3693 70.4715 46.2869 70.4056 46.1221C70.3479 45.949 70.3191 45.7512 70.3191 45.5287V33.0566C70.3191 32.8176 70.3356 32.6816 70.3685 32.6487C70.4015 32.6157 70.5375 32.5992 70.7764 32.5992H82.8654C83.0797 32.5992 83.261 32.6198 83.4093 32.661C83.5659 32.694 83.6442 32.8176 83.6442 33.0318C83.6442 33.2214 83.5741 33.3326 83.434 33.3656C83.294 33.3986 83.1044 33.415 82.8654 33.415H71.3698V39.0269H81.0978C81.3368 39.0269 81.5305 39.0434 81.6788 39.0763C81.8354 39.1093 81.9136 39.2206 81.9136 39.4101C81.9136 39.6243 81.8312 39.7521 81.6664 39.7933C81.5016 39.8262 81.3121 39.8427 81.0978 39.8427H71.3698V45.504C71.3698 45.743 71.3327 45.949 71.2585 46.1221C71.1926 46.2869 71.0607 46.3693 70.863 46.3693Z" fill="white" stroke="#8A4DC5"/>
<path fill-rule="evenodd" clip-rule="evenodd" d="M120.484 45.6649C120.309 45.8233 120.016 46.0181 119.69 46.2235L119.686 46.2259L119.686 46.2259C119.226 46.5122 118.607 46.7547 117.87 46.969L117.864 46.9707L117.864 46.9707C117.068 47.1954 116.095 47.2971 114.967 47.2971C112.827 47.2971 111.094 46.8575 109.963 45.7978L109.961 45.7952C108.854 44.7481 108.341 43.3173 108.341 41.6111C108.341 40.2381 108.619 39.0556 109.27 38.1558L109.274 38.151L109.274 38.151C109.905 37.2933 110.758 36.6929 111.801 36.3482C112.792 36.0211 113.878 35.8633 115.053 35.8633C116.844 35.8633 118.331 36.2033 119.379 37.0159C120.459 37.8377 120.974 39.0214 120.974 40.4492C120.974 40.7453 120.931 41.0677 120.857 41.4075L120.856 41.4119L120.856 41.4119C120.82 41.5754 120.773 41.7481 120.708 41.8953C120.677 41.9659 120.621 42.0773 120.527 42.183C120.437 42.2847 120.222 42.4764 119.886 42.4764H119.876V42.4763L110.97 42.3636C111.102 43.3709 111.438 43.9453 111.849 44.2481C112.473 44.7016 113.471 44.9856 114.954 44.9856C115.834 44.9856 116.53 44.9066 117.058 44.766C117.649 44.6026 118.087 44.4331 118.393 44.2672C118.775 44.0562 119.032 43.9023 119.181 43.8005L119.188 43.7959L119.188 43.7959C119.384 43.6652 119.586 43.6383 119.725 43.6383C120.101 43.6383 120.381 43.8288 120.559 44.034C120.748 44.234 120.887 44.5072 120.887 44.8373C120.887 45.1895 120.721 45.4761 120.484 45.6649ZM118.653 40.1649C118.624 39.8426 118.526 39.5586 118.364 39.3009L118.36 39.2953L118.36 39.2953C118.19 39.0191 117.879 38.7479 117.341 38.5202C116.834 38.306 116.088 38.1748 115.053 38.1748C113.605 38.1748 112.586 38.4276 111.912 38.8458C111.51 39.0988 111.198 39.5085 111.037 40.1649H118.653Z" fill="#8A4DC5"/>
<path fill-rule="evenodd" clip-rule="evenodd" d="M106.516 45.6649C106.341 45.8233 106.048 46.0181 105.722 46.2235L105.718 46.2259L105.718 46.2259C105.258 46.5122 104.639 46.7547 103.902 46.969L103.896 46.9707L103.896 46.9707C103.1 47.1954 102.127 47.2971 100.999 47.2971C98.8595 47.2971 97.1265 46.8575 95.9956 45.7978L95.9928 45.7952C94.8858 44.7481 94.3733 43.3173 94.3733 41.6111C94.3733 40.2381 94.6508 39.0556 95.3024 38.1558L95.3059 38.151L95.3059 38.151C95.9368 37.2933 96.7897 36.6929 97.8335 36.3482C98.8239 36.0211 99.9105 35.8633 101.085 35.8633C102.876 35.8633 104.363 36.2033 105.411 37.0159C106.491 37.8377 107.006 39.0214 107.006 40.4492C107.006 40.7453 106.963 41.0677 106.889 41.4075L106.888 41.4119L106.888 41.4119C106.852 41.5754 106.806 41.7481 106.74 41.8953C106.709 41.9659 106.653 42.0773 106.559 42.183C106.469 42.2847 106.255 42.4764 105.918 42.4764H105.908V42.4763L97.0026 42.3636C97.1345 43.3709 97.4699 43.9453 97.881 44.2481C98.5055 44.7016 99.5029 44.9856 100.986 44.9856C101.866 44.9856 102.562 44.9066 103.091 44.766C103.682 44.6026 104.12 44.4331 104.426 44.2672C104.807 44.0562 105.064 43.9023 105.213 43.8005L105.22 43.7959L105.22 43.7959C105.416 43.6652 105.619 43.6383 105.758 43.6383C106.133 43.6383 106.413 43.8288 106.592 44.034C106.78 44.234 106.92 44.5072 106.92 44.8373C106.92 45.1895 106.753 45.4761 106.516 45.6649ZM104.685 40.1649C104.656 39.8426 104.558 39.5586 104.396 39.3009L104.393 39.2953L104.393 39.2953C104.222 39.0191 103.911 38.7479 103.373 38.5202C102.867 38.306 102.12 38.1748 101.085 38.1748C99.6376 38.1748 98.6183 38.4276 97.9443 38.8458C97.542 39.0988 97.2306 39.5085 97.0696 40.1649H104.685Z" fill="#8A4DC5"/>
<path fill-rule="evenodd" clip-rule="evenodd" d="M87.2421 36.7947C87.7984 36.4304 88.4029 36.1814 89.0513 36.0517C89.6618 35.9296 90.2187 35.8633 90.7145 35.8633C91.3585 35.8633 91.8969 35.8952 92.2829 35.981C92.5911 36.0495 92.8705 36.1192 93.1197 36.1904C93.3458 36.255 93.5787 36.3893 93.7452 36.6272C93.9066 36.8577 93.9531 37.1107 93.9531 37.3219C93.9531 37.6214 93.8468 37.8881 93.6762 38.1032C93.4245 38.4345 93.0583 38.5456 92.7417 38.5456H92.3399L92.2502 38.456C92.0008 38.3895 91.7629 38.3377 91.5363 38.3C91.2875 38.2585 91.0141 38.2366 90.7145 38.2366C89.8494 38.2366 89.1104 38.4082 88.4786 38.7309L88.4756 38.7325C87.9523 38.997 87.5966 39.391 87.3894 39.9513V45.5048C87.3894 45.7903 87.3509 46.07 87.2657 46.338C87.194 46.5633 87.0546 46.7912 86.8178 46.954C86.5868 47.1129 86.3335 47.1612 86.1163 47.1612C85.9031 47.1612 85.6495 47.1199 85.414 46.9719C85.165 46.8153 85.0082 46.5845 84.9298 46.338L84.9248 46.3222L84.9204 46.3063C84.8501 46.0484 84.8184 45.7797 84.8184 45.5048V37.5938C84.8184 37.3154 84.8665 37.0264 85.0008 36.7579L85.009 36.7415C85.2783 36.2328 85.7913 36.1105 86.1657 36.1105C86.346 36.1105 86.5677 36.1425 86.7807 36.2642C86.9996 36.3893 87.1545 36.5783 87.2421 36.7947ZM92.4382 38.5055C92.4397 38.5058 92.4402 38.5059 92.4382 38.5055V38.5055Z" fill="#8A4DC5"/>
<path fill-rule="evenodd" clip-rule="evenodd" d="M70.3996 31.8264C70.5141 31.8125 70.6444 31.8083 70.776 31.8083H82.865C83.1179 31.8083 83.368 31.8314 83.6007 31.8935C83.8555 31.9542 84.0947 32.1048 84.2534 32.3554C84.4018 32.5896 84.4349 32.8406 84.4349 33.032C84.4349 33.2136 84.4029 33.4532 84.2607 33.6791C84.104 33.928 83.8661 34.0767 83.6148 34.1359C83.3893 34.1889 83.1306 34.2063 82.865 34.2063H72.1605V38.236H81.0974C81.3639 38.236 81.6201 38.2536 81.8464 38.3035C82.0822 38.3542 82.3284 38.4835 82.5015 38.7294C82.6648 38.9615 82.7043 39.2147 82.7043 39.4103C82.7043 39.6099 82.6672 39.8617 82.5162 40.0956C82.353 40.3487 82.1104 40.4978 81.8579 40.5609L81.8396 40.5655L81.8212 40.5692C81.5936 40.6147 81.3503 40.634 81.0974 40.634H72.1605V45.5042C72.1605 45.8197 72.1122 46.134 71.9886 46.426C71.9019 46.6377 71.7536 46.8382 71.5291 46.9785C71.3074 47.1171 71.0698 47.1606 70.8626 47.1606C70.659 47.1606 70.4201 47.1265 70.1928 47.0036C69.9495 46.8721 69.7706 46.6658 69.6707 46.4161L69.6621 46.3945L69.6547 46.3724C69.565 46.1032 69.5276 45.8185 69.5276 45.5289V33.0568C69.5276 32.9251 69.5318 32.7948 69.5457 32.6804C69.5525 32.6242 69.5642 32.5495 69.5873 32.4707C69.6031 32.4166 69.6556 32.2426 69.8087 32.0895C69.9619 31.9363 70.1359 31.8838 70.1899 31.868C70.2688 31.8449 70.3435 31.8332 70.3996 31.8264Z" fill="#8A4DC5"/>
<path d="M154.509 22.76C153.669 22.76 152.902 22.6653 152.21 22.4757C151.526 22.278 150.978 21.9689 150.566 21.5487C150.162 21.1201 149.96 20.5598 149.96 19.8676C149.96 19.06 150.179 18.4296 150.616 17.9764C151.052 17.5231 151.642 17.2059 152.383 17.0246C153.125 16.835 153.957 16.7403 154.88 16.7403C155.935 16.7403 156.953 16.7979 157.933 16.9133C158.922 17.0287 159.68 17.2017 160.208 17.4325C160.208 16.3365 160.014 15.5206 159.627 14.985C159.248 14.4411 158.708 14.0827 158.007 13.9096C157.315 13.7283 156.499 13.6377 155.56 13.6377C154.274 13.6377 153.31 13.7118 152.667 13.8602C152.025 14.0085 151.506 14.1486 151.11 14.2804C151.061 14.2969 151.028 14.3052 151.011 14.3052C150.912 14.3052 150.822 14.2557 150.739 14.1568C150.657 14.0497 150.616 13.9426 150.616 13.8354C150.616 13.7283 150.665 13.65 150.764 13.6006C150.904 13.5347 151.378 13.4069 152.185 13.2174C152.993 13.0196 154.237 12.9207 155.918 12.9207C156.932 12.9207 157.838 13.0443 158.638 13.2916C159.437 13.5305 160.063 14.0044 160.517 14.7131C160.978 15.4135 161.209 16.456 161.209 17.8404V21.7712C161.209 21.9607 161.18 22.1543 161.122 22.3521C161.073 22.5417 160.933 22.6364 160.702 22.6364C160.513 22.6364 160.381 22.5499 160.307 22.3768C160.241 22.2038 160.208 21.9854 160.208 21.7217V21.0295C159.969 21.2767 159.618 21.5363 159.157 21.8082C158.704 22.0719 158.102 22.2986 157.352 22.4881C156.602 22.6694 155.655 22.76 154.509 22.76ZM154.41 22.0307C156.034 22.0307 157.303 21.8494 158.218 21.4869C159.132 21.1243 159.796 20.774 160.208 20.4362V17.9516C159.408 17.8363 158.555 17.7291 157.649 17.6302C156.751 17.5231 155.861 17.4696 154.979 17.4696C153.71 17.4696 152.721 17.6344 152.012 17.964C151.304 18.2936 150.949 18.9281 150.949 19.8676C150.949 20.6504 151.275 21.2067 151.926 21.5363C152.577 21.8659 153.405 22.0307 154.41 22.0307Z" fill="white" stroke="#8A4DC5"/>
<path d="M130.677 22.6364C130.562 22.6364 130.438 22.6076 130.307 22.5499C130.183 22.4922 130.121 22.3068 130.121 21.9937V13.7736C130.121 13.5099 130.179 13.3451 130.294 13.2792C130.41 13.205 130.521 13.1679 130.628 13.1679C130.768 13.1679 130.879 13.205 130.962 13.2792C131.052 13.3451 131.098 13.5099 131.098 13.7736V15.294C131.361 14.5441 131.905 13.9632 132.729 13.5511C133.562 13.1309 134.513 12.9207 135.585 12.9207C136.425 12.9207 137.051 13.0608 137.463 13.341C137.884 13.6212 138.172 13.9426 138.329 14.3052C138.485 14.6677 138.588 14.9768 138.638 15.2322C138.836 14.8861 139.124 14.5359 139.503 14.1815C139.89 13.8272 140.385 13.5305 140.986 13.2916C141.588 13.0443 142.309 12.9207 143.15 12.9207C144.278 12.9207 145.115 13.2133 145.659 13.7984C146.211 14.3834 146.487 15.3146 146.487 16.5919V21.9937C146.487 22.2821 146.429 22.4634 146.314 22.5375C146.207 22.6035 146.104 22.6364 146.005 22.6364C145.881 22.6364 145.766 22.6076 145.659 22.5499C145.552 22.4922 145.498 22.3068 145.498 21.9937V16.5919C145.498 15.4465 145.304 14.6719 144.917 14.2681C144.538 13.856 143.957 13.65 143.174 13.65C142.119 13.65 141.242 13.8643 140.541 14.2928C139.849 14.7213 139.272 15.3105 138.811 16.0604V21.9937C138.811 22.2821 138.757 22.4634 138.65 22.5375C138.543 22.6035 138.44 22.6364 138.341 22.6364C138.226 22.6364 138.11 22.6076 137.995 22.5499C137.88 22.4922 137.822 22.3068 137.822 21.9937V16.0604C137.822 15.3105 137.645 14.7213 137.29 14.2928C136.944 13.8643 136.384 13.65 135.609 13.65C134.447 13.65 133.454 13.8931 132.63 14.3793C131.815 14.8655 131.308 15.4424 131.11 16.1099V21.9937C131.11 22.2821 131.061 22.4634 130.962 22.5375C130.871 22.6035 130.776 22.6364 130.677 22.6364Z" fill="white" stroke="#8A4DC5"/>
<path d="M126.228 22.6363C125.997 22.6363 125.857 22.5663 125.807 22.4262C125.758 22.2861 125.733 22.0965 125.733 21.8576V13.9218C125.733 13.6829 125.758 13.481 125.807 13.3162C125.857 13.1431 125.997 13.0566 126.228 13.0566C126.434 13.0566 126.565 13.1431 126.623 13.3162C126.689 13.4892 126.722 13.6829 126.722 13.8971V21.8576C126.722 22.0718 126.697 22.2572 126.648 22.4138C126.607 22.5621 126.467 22.6363 126.228 22.6363ZM126.215 11.017C126.001 11.017 125.828 10.9552 125.696 10.8316C125.564 10.6998 125.498 10.5308 125.498 10.3248C125.498 10.1106 125.564 9.93751 125.696 9.80566C125.828 9.66557 126.001 9.59552 126.215 9.59552C126.421 9.59552 126.594 9.66557 126.734 9.80566C126.883 9.93751 126.957 10.1106 126.957 10.3248C126.957 10.5308 126.883 10.6998 126.734 10.8316C126.594 10.9552 126.421 11.017 126.215 11.017Z" fill="white" stroke="#8A4DC5"/>
<path d="M121.839 22.6364C121.6 22.6364 121.456 22.554 121.407 22.3891C121.357 22.2161 121.333 22.0183 121.333 21.7958V9.75627C121.333 9.5173 121.357 9.31128 121.407 9.13823C121.464 8.95693 121.617 8.86629 121.864 8.86629C122.07 8.86629 122.198 8.95693 122.247 9.13823C122.297 9.31952 122.321 9.5173 122.321 9.73155V21.7711C122.321 22.0101 122.293 22.2161 122.235 22.3891C122.177 22.554 122.045 22.6364 121.839 22.6364Z" fill="white" stroke="#8A4DC5"/>
<path d="M112.371 22.76C111.786 22.76 111.139 22.7353 110.43 22.6859C109.722 22.6447 109.034 22.5417 108.366 22.3768C107.707 22.2038 107.138 21.9319 106.66 21.561C106.545 21.4704 106.487 21.3632 106.487 21.2396C106.487 20.9759 106.594 20.8441 106.809 20.8441C106.875 20.8441 106.924 20.8606 106.957 20.8935C107.649 21.3715 108.444 21.6805 109.343 21.8206C110.241 21.9607 111.209 22.0307 112.247 22.0307C113.072 22.0307 113.846 21.9731 114.571 21.8577C115.296 21.7423 115.882 21.5404 116.327 21.252C116.78 20.9636 117.006 20.5639 117.006 20.053C117.006 19.5503 116.809 19.1754 116.413 18.9281C116.026 18.6809 115.511 18.512 114.868 18.4213C114.233 18.3307 113.533 18.2771 112.767 18.2607C112 18.2442 111.23 18.2195 110.455 18.1865C109.689 18.1535 108.984 18.067 108.341 17.9269C107.707 17.7786 107.192 17.5355 106.796 17.1976C106.409 16.8597 106.215 16.3777 106.215 15.7514C106.215 14.9932 106.475 14.4123 106.994 14.0085C107.521 13.5965 108.193 13.3122 109.009 13.1556C109.825 12.999 110.669 12.9207 111.543 12.9207C112.598 12.9207 113.599 13.0114 114.547 13.1927C115.503 13.374 116.372 13.6706 117.155 14.0827C117.287 14.1568 117.361 14.2722 117.377 14.4288C117.377 14.5359 117.344 14.6307 117.278 14.7131C117.212 14.7955 117.138 14.8367 117.056 14.8367C117.006 14.8367 116.973 14.8284 116.957 14.812C116.257 14.4576 115.457 14.1774 114.559 13.9714C113.661 13.7572 112.672 13.65 111.592 13.65C110.851 13.65 110.142 13.716 109.466 13.8478C108.799 13.9714 108.255 14.1857 107.835 14.4906C107.414 14.7955 107.204 15.2157 107.204 15.7514C107.204 16.2293 107.398 16.5837 107.785 16.8144C108.181 17.0369 108.696 17.1894 109.33 17.2718C109.973 17.3542 110.678 17.4036 111.444 17.4201C112.219 17.4366 112.989 17.4654 113.756 17.5066C114.522 17.5478 115.222 17.6467 115.857 17.8033C116.5 17.9599 117.015 18.2153 117.402 18.5697C117.798 18.9158 117.995 19.4102 117.995 20.053C117.995 20.7287 117.727 21.2644 117.192 21.6599C116.664 22.0472 115.972 22.3274 115.115 22.5005C114.258 22.6735 113.343 22.76 112.371 22.76Z" fill="white" stroke="#8A4DC5"/>
<path d="M96.9197 22.7604C95.1562 22.7604 93.8953 22.4143 93.1372 21.7221C92.3791 21.0216 92 19.8926 92 18.3352V14.0583C92 13.844 92.0288 13.6421 92.0865 13.4526C92.1442 13.2631 92.2802 13.1683 92.4944 13.1683C92.7334 13.1683 92.8735 13.2631 92.9147 13.4526C92.9642 13.6421 92.9889 13.844 92.9889 14.0583V18.3352C92.9889 19.2499 93.096 19.9792 93.3103 20.5231C93.5328 21.0587 93.9283 21.446 94.4969 21.685C95.0655 21.9157 95.8731 22.0311 96.9197 22.0311C98.0733 22.0311 99.054 21.8539 99.8616 21.4996C100.677 21.1452 101.32 20.7909 101.79 20.4365V14.0583C101.79 13.844 101.81 13.6421 101.852 13.4526C101.901 13.2631 102.033 13.1683 102.247 13.1683C102.494 13.1683 102.643 13.2631 102.692 13.4526C102.75 13.6421 102.779 13.844 102.779 14.0583V21.7715C102.779 21.9858 102.75 22.1835 102.692 22.3648C102.635 22.5461 102.507 22.6368 102.309 22.6368C102.103 22.6368 101.963 22.5708 101.889 22.439C101.823 22.3071 101.79 22.0847 101.79 21.7715V20.8939C101.559 21.1658 101.238 21.446 100.826 21.7344C100.414 22.0228 99.8904 22.2659 99.2559 22.4637C98.6213 22.6615 97.8426 22.7604 96.9197 22.7604Z" fill="white" stroke="#8A4DC5"/>
<path d="M70.8257 22.6364C70.5867 22.6364 70.4384 22.554 70.3807 22.3891C70.323 22.2161 70.2942 22.0101 70.2942 21.7711V9.53378C70.2942 9.34424 70.3436 9.18767 70.4425 9.06406C70.5496 8.93221 70.6815 8.86629 70.8381 8.86629C71.1018 8.86629 71.3531 9.04346 71.5921 9.39781L79.2559 20.9182L86.9196 9.39781C87.1504 9.04346 87.4017 8.86629 87.6737 8.86629C87.8302 8.86629 87.958 8.93221 88.0568 9.06406C88.164 9.18767 88.2175 9.34424 88.2175 9.53378V21.7711C88.2175 22.0101 88.1887 22.2161 88.131 22.3891C88.0733 22.554 87.925 22.6364 87.686 22.6364C87.48 22.6364 87.3399 22.554 87.2657 22.3891C87.1998 22.2161 87.1669 22.0101 87.1669 21.7711V10.7946L79.8616 21.5733C79.6638 21.8535 79.4619 21.9936 79.2559 21.9936C79.0334 21.9936 78.8315 21.8535 78.6502 21.5733L71.3449 10.7946V21.7711C71.3449 22.0101 71.3078 22.2161 71.2336 22.3891C71.1677 22.554 71.0317 22.6364 70.8257 22.6364Z" fill="white" stroke="#8A4DC5"/>
<path fill-rule="evenodd" clip-rule="evenodd" d="M159.326 16.3377C159.248 15.9315 159.126 15.6437 158.985 15.4487L158.977 15.4376L158.978 15.4376C158.718 15.0655 158.349 14.8092 157.818 14.6778L157.807 14.6752L157.807 14.6751C157.197 14.5153 156.451 14.429 155.56 14.429C154.289 14.429 153.398 14.5037 152.845 14.6312C152.215 14.7767 151.722 14.9104 151.36 15.0311C151.325 15.0428 151.283 15.0558 151.24 15.0667L151.239 15.0668C151.211 15.0738 151.121 15.0965 151.011 15.0965C150.611 15.0965 150.315 14.8843 150.131 14.6635L150.121 14.6516L150.112 14.6394C149.951 14.4307 149.824 14.1585 149.824 13.8356C149.824 13.6565 149.867 13.4585 149.984 13.2741C150.099 13.0912 150.257 12.9698 150.41 12.8932L150.427 12.8848L150.427 12.885C150.572 12.8168 150.796 12.7517 151.018 12.6917C151.267 12.6248 151.595 12.5435 152.001 12.4483C152.905 12.2275 154.227 12.1298 155.918 12.1298C156.994 12.1298 157.98 12.2607 158.868 12.5349C159.847 12.8285 160.627 13.4191 161.18 14.2826C161.764 15.1711 162 16.3946 162 17.8406V21.7714C162 22.039 161.959 22.3042 161.884 22.5648C161.818 22.81 161.673 23.0519 161.423 23.2208C161.183 23.3836 160.919 23.4277 160.702 23.4277C160.484 23.4277 160.246 23.3768 160.027 23.2331C159.808 23.0892 159.666 22.8899 159.579 22.6887L159.573 22.6738L159.567 22.6587C159.549 22.6109 159.533 22.5624 159.518 22.5132C158.985 22.8172 158.319 23.0599 157.546 23.2553L157.538 23.2573L157.538 23.2572C156.706 23.4585 155.69 23.5513 154.509 23.5513C153.61 23.5513 152.772 23.45 152.001 23.2389L151.99 23.236L151.99 23.2359C151.203 23.0082 150.527 22.6387 150.001 22.1027L149.99 22.0915L149.99 22.0914C149.424 21.4907 149.169 20.7239 149.169 19.8678C149.169 18.9158 149.43 18.0667 150.046 17.4276C150.606 16.8465 151.337 16.4667 152.191 16.2573C153.007 16.0491 153.906 15.9494 154.88 15.9494C155.963 15.9494 157.012 16.0086 158.025 16.1278C158.497 16.1828 158.932 16.2519 159.326 16.3377ZM159.416 20.0313V18.6407C158.827 18.562 158.209 18.4874 157.563 18.4169L157.555 18.416L157.555 18.416C156.687 18.3125 155.828 18.2609 154.979 18.2609C153.762 18.2609 152.905 18.4216 152.346 18.6815C152.13 18.7817 151.995 18.9123 151.906 19.073C151.811 19.2428 151.74 19.4946 151.74 19.8678C151.74 20.1489 151.798 20.3392 151.876 20.4725C151.952 20.6027 152.075 20.7252 152.283 20.8307C152.79 21.0872 153.485 21.2398 154.41 21.2398C155.99 21.2398 157.145 21.0612 157.926 20.7516C158.592 20.4874 159.08 20.2451 159.416 20.0313Z" fill="white"/>
<path fill-rule="evenodd" clip-rule="evenodd" d="M139.602 16.2927V21.9939C139.602 22.1785 139.586 22.3793 139.529 22.5703C139.474 22.7583 139.357 23.0109 139.101 23.1882L139.083 23.2003L139.065 23.2115C138.867 23.3335 138.621 23.4277 138.341 23.4277C138.089 23.4277 137.853 23.3637 137.641 23.2577C137.312 23.093 137.171 22.7979 137.11 22.6028C137.047 22.402 137.031 22.1877 137.031 21.9939V16.0606C137.031 15.4305 136.883 15.0411 136.681 14.7971L136.675 14.7901L136.675 14.7901C136.533 14.6145 136.247 14.4413 135.609 14.4413C134.559 14.4413 133.712 14.6602 133.034 15.06C132.382 15.4489 132.046 15.8508 131.901 16.2376V21.9939C131.901 22.1751 131.886 22.3699 131.836 22.5543C131.788 22.7308 131.683 22.9856 131.436 23.1706L131.427 23.1776L131.427 23.1775C131.22 23.3281 130.965 23.4277 130.677 23.4277C130.429 23.4277 130.197 23.3658 129.99 23.2749L129.972 23.2672L129.972 23.267C129.641 23.1125 129.486 22.8262 129.417 22.6179C129.348 22.4109 129.33 22.1907 129.33 21.9939V13.7738C129.33 13.5937 129.349 13.3888 129.418 13.1911C129.488 12.9918 129.625 12.7592 129.88 12.605C130.086 12.4759 130.339 12.377 130.628 12.377C130.901 12.377 131.207 12.4495 131.464 12.668C131.658 12.8232 131.755 13.0219 131.806 13.1765C131.984 13.0557 132.173 12.945 132.374 12.8445C133.332 12.361 134.409 12.1298 135.585 12.1298C136.485 12.1298 137.3 12.2747 137.905 12.6849C138.311 12.9556 138.651 13.282 138.89 13.6731C138.914 13.6499 138.938 13.6268 138.963 13.6038L138.969 13.598L138.969 13.5981C139.441 13.1667 140.021 12.8244 140.69 12.5582C141.41 12.2634 142.237 12.1298 143.15 12.1298C144.404 12.1298 145.489 12.4559 146.236 13.2578C146.988 14.0554 147.278 15.2278 147.278 16.5921V21.9939C147.278 22.182 147.26 22.3887 147.198 22.586C147.134 22.7848 147.005 23.034 146.742 23.2032L146.729 23.2116L146.729 23.2115C146.53 23.3335 146.285 23.4277 146.005 23.4277C145.753 23.4277 145.508 23.3674 145.284 23.2466C144.958 23.0714 144.831 22.7683 144.778 22.5873C144.722 22.393 144.707 22.1847 144.707 21.9939V16.5921C144.707 15.4686 144.503 14.9793 144.346 14.8159L144.335 14.804L144.335 14.8039C144.158 14.6112 143.827 14.4413 143.174 14.4413C142.225 14.4413 141.501 14.6337 140.956 14.9668C140.433 15.291 139.981 15.7287 139.602 16.2927Z" fill="white"/>
<path fill-rule="evenodd" clip-rule="evenodd" d="M126.263 10.3563C126.266 10.3536 126.268 10.3505 126.27 10.3472C126.271 10.3459 126.272 10.3447 126.273 10.3434C126.277 10.3372 126.28 10.3311 126.283 10.3255C126.283 10.3256 126.283 10.3253 126.283 10.3255L126.245 10.2826L126.176 10.3518C126.177 10.3546 126.179 10.3574 126.18 10.3601C126.183 10.3657 126.187 10.3711 126.19 10.3762C126.194 10.3783 126.198 10.3802 126.202 10.382C126.206 10.3834 126.209 10.3845 126.212 10.3854C126.213 10.3851 126.214 10.3847 126.215 10.3844C126.217 10.3837 126.219 10.3829 126.221 10.382C126.222 10.3818 126.222 10.3815 126.223 10.3813C126.232 10.3774 126.242 10.3721 126.251 10.3657C126.252 10.3652 126.253 10.3647 126.253 10.3641C126.257 10.3614 126.261 10.3588 126.263 10.3563ZM126.167 10.329L126.229 10.2637L126.208 10.241C126.205 10.2439 126.196 10.2531 126.187 10.2686C126.184 10.2741 126.18 10.2805 126.177 10.2876C126.177 10.2879 126.177 10.2872 126.177 10.2876C126.17 10.3036 126.167 10.3169 126.166 10.3229C126.166 10.3236 126.166 10.3245 126.166 10.3255C126.167 10.3265 126.167 10.3277 126.167 10.329ZM126.247 10.2806L126.255 10.2729C126.257 10.2745 126.259 10.2767 126.261 10.2793C126.264 10.2827 126.267 10.2868 126.27 10.2918C126.275 10.2992 126.279 10.3069 126.282 10.3144C126.283 10.3159 126.284 10.3175 126.284 10.3191C126.285 10.3196 126.285 10.3202 126.285 10.3207C126.285 10.3213 126.284 10.3219 126.284 10.3225L126.247 10.2806ZM126.231 10.2617L126.211 10.2391C126.211 10.2386 126.212 10.238 126.213 10.2372C126.213 10.2371 126.213 10.2373 126.213 10.2372C126.213 10.2375 126.214 10.2381 126.215 10.2384C126.223 10.2437 126.231 10.2495 126.237 10.2551L126.231 10.2617ZM125.128 9.25544C125.426 8.94368 125.814 8.80506 126.215 8.80506C126.614 8.80506 126.985 8.94662 127.277 9.23075C127.597 9.52393 127.748 9.9129 127.748 10.3255C127.748 10.7476 127.584 11.1352 127.26 11.4235L127.257 11.4255C126.958 11.69 126.592 11.8088 126.215 11.8088C125.839 11.8088 125.46 11.6954 125.155 11.4094L125.145 11.4007L125.136 11.3916C124.84 11.0952 124.707 10.7171 124.707 10.3255C124.707 9.93897 124.831 9.55673 125.128 9.25544ZM125.533 12.449C125.769 12.3036 126.021 12.2661 126.227 12.2661C126.438 12.2661 126.686 12.3105 126.915 12.4607C127.146 12.6124 127.29 12.8275 127.367 13.0488C127.469 13.3207 127.513 13.607 127.513 13.8978V21.8582C127.513 22.1263 127.483 22.3921 127.405 22.642C127.322 22.925 127.133 23.1476 126.882 23.2805C126.654 23.4009 126.416 23.428 126.227 23.428C125.878 23.428 125.28 23.3112 125.061 22.6901C124.969 22.4298 124.942 22.1391 124.942 21.8582V13.9225C124.942 13.6356 124.971 13.3535 125.048 13.0937C125.122 12.839 125.281 12.6048 125.533 12.449Z" fill="white"/>
<path fill-rule="evenodd" clip-rule="evenodd" d="M121.16 8.25406C121.398 8.11283 121.652 8.07495 121.864 8.07495C122.08 8.07495 122.338 8.12272 122.572 8.28889C122.814 8.46026 122.948 8.69929 123.011 8.92984C123.081 9.18768 123.113 9.45639 123.113 9.73132V21.7709C123.113 22.07 123.077 22.3648 122.985 22.6391L122.982 22.6503L122.982 22.6503C122.901 22.8803 122.749 23.0969 122.512 23.2452C122.286 23.3866 122.044 23.4272 121.839 23.4272C121.639 23.4272 121.392 23.3942 121.16 23.2612C120.904 23.1154 120.73 22.8852 120.649 22.6162L120.646 22.6063L120.646 22.6062C120.572 22.3482 120.542 22.075 120.542 21.7956V9.75604C120.542 9.46604 120.571 9.18317 120.646 8.92066L120.649 8.90934L120.653 8.89813C120.736 8.63751 120.905 8.4059 121.16 8.25406Z" fill="white"/>
<path fill-rule="evenodd" clip-rule="evenodd" d="M114.694 12.4157C113.693 12.2243 112.642 12.1298 111.542 12.1298C110.622 12.1298 109.727 12.2124 108.859 12.3789C107.95 12.5534 107.154 12.8794 106.507 13.3848C105.765 13.9625 105.424 14.7918 105.424 15.7516C105.424 16.552 105.679 17.2735 106.276 17.794L106.276 17.794L106.282 17.7993C106.795 18.2375 107.434 18.5274 108.161 18.6974L108.161 18.6975L108.173 18.7001C108.866 18.8512 109.616 18.9425 110.421 18.9771L110.421 18.9771C111.201 19.0103 111.977 19.0352 112.749 19.0518C113.49 19.0677 114.158 19.1193 114.756 19.2047L114.757 19.2049C115.331 19.2858 115.726 19.4286 115.987 19.5952L115.987 19.5952L115.993 19.5992C116.137 19.6889 116.215 19.7978 116.215 20.0532C116.215 20.2773 116.141 20.4326 115.901 20.5848L115.901 20.5848L115.896 20.5883C115.572 20.7983 115.102 20.9723 114.447 21.0766C113.767 21.1847 113.034 21.2398 112.247 21.2398C111.244 21.2398 110.317 21.1721 109.464 21.0392C108.689 20.9182 108.018 20.6576 107.439 20.2651C107.222 20.091 106.976 20.0532 106.808 20.0532C106.531 20.0532 106.195 20.1466 105.953 20.4443C105.737 20.7106 105.696 21.0213 105.696 21.2398C105.696 21.6528 105.905 21.974 106.171 22.1833L106.175 22.1863C106.747 22.6303 107.416 22.9455 108.165 23.1422L108.165 23.1423L108.176 23.1451C108.891 23.3215 109.625 23.4315 110.379 23.4756C111.101 23.5258 111.765 23.5513 112.371 23.5513C113.39 23.5513 114.357 23.4606 115.271 23.2761C116.205 23.0876 117.014 22.7719 117.66 22.2977L117.661 22.2965C118.403 21.7492 118.786 20.9756 118.786 20.0532C118.786 19.2406 118.529 18.5093 117.929 17.9804C117.423 17.5193 116.78 17.2145 116.045 17.0352C115.355 16.865 114.605 16.7603 113.798 16.7169C113.023 16.6752 112.244 16.6461 111.461 16.6294M114.694 12.4157C115.719 12.6102 116.664 12.9309 117.523 13.3828L117.542 13.3931L117.542 13.3934C117.908 13.5991 118.122 13.947 118.164 14.3461L118.168 14.3874V14.429C118.168 14.7128 118.076 14.9825 117.896 15.2075C117.725 15.4203 117.443 15.628 117.055 15.628C116.993 15.628 116.902 15.6233 116.802 15.5982C116.74 15.5828 116.651 15.5538 116.556 15.4965C115.932 15.1855 115.209 14.9324 114.382 14.7427L114.375 14.7411L114.375 14.7411C113.546 14.5434 112.62 14.4413 111.592 14.4413C110.897 14.4413 110.24 14.5031 109.617 14.6245L109.61 14.6259L109.61 14.6259C109.024 14.7344 108.599 14.9132 108.299 15.1311C108.091 15.2817 107.995 15.4599 107.995 15.7516C107.995 15.9668 108.056 16.0536 108.182 16.1303C108.46 16.2848 108.866 16.4139 109.431 16.4874C110.041 16.5656 110.717 16.6134 111.46 16.6294" fill="white"/>
<path fill-rule="evenodd" clip-rule="evenodd" d="M101.079 22.515C100.623 22.8003 100.09 23.0318 99.4916 23.2183C98.7577 23.4471 97.8942 23.5508 96.92 23.5508C95.0896 23.5508 93.5819 23.1984 92.6041 22.3056L92.6007 22.3025C91.6133 21.3902 91.2092 20.0006 91.2092 18.3345V14.0576C91.2092 13.7716 91.2478 13.4916 91.33 13.2216C91.4001 12.9914 91.5392 12.7573 91.7798 12.5897C92.0145 12.4261 92.273 12.3765 92.4948 12.3765C92.7095 12.3765 92.9776 12.4179 93.2223 12.5834C93.4795 12.7574 93.6242 13.0095 93.6839 13.2653C93.7495 13.5217 93.7803 13.7868 93.7803 14.0576V18.3345C93.7803 19.1949 93.8822 19.8111 94.0439 20.2254C94.181 20.5512 94.4143 20.7902 94.7992 20.9531C95.2296 21.1266 95.9172 21.2393 96.92 21.2393C97.9964 21.2393 98.8624 21.0735 99.544 20.7745L99.5467 20.7733L99.5467 20.7733C100.146 20.513 100.627 20.2616 100.999 20.0225V14.0576C100.999 13.7927 101.025 13.534 101.079 13.2839L101.082 13.268L101.087 13.2522C101.148 13.0173 101.281 12.7724 101.526 12.5963C101.764 12.4255 102.027 12.3765 102.248 12.3765C102.464 12.3765 102.727 12.4168 102.97 12.572C103.226 12.7354 103.382 12.9771 103.453 13.2346C103.533 13.5006 103.57 13.7762 103.57 14.0576V21.7708C103.57 22.0564 103.532 22.3361 103.446 22.604C103.377 22.8223 103.243 23.0487 103.011 23.2133C102.782 23.3759 102.529 23.4272 102.309 23.4272C101.935 23.4272 101.463 23.2949 101.2 22.8262L101.19 22.8094L101.181 22.7921C101.138 22.7048 101.104 22.6114 101.079 22.515Z" fill="white"/>
<path fill-rule="evenodd" clip-rule="evenodd" d="M72.1361 13.3715V21.7707C72.1361 22.0862 72.0878 22.4005 71.9642 22.6925C71.8747 22.911 71.7207 23.1123 71.4923 23.2507C71.2692 23.386 71.0314 23.4271 70.8258 23.4271C70.6237 23.4271 70.3811 23.3935 70.1511 23.2657C69.9022 23.1274 69.725 22.9097 69.6341 22.6501L69.6302 22.639C69.5388 22.3647 69.5032 22.0699 69.5032 21.7707V9.53341C69.5032 9.20101 69.5928 8.85963 69.8249 8.5695L69.8286 8.56482C70.0714 8.26603 70.4212 8.07482 70.8382 8.07482C71.4965 8.07482 71.9553 8.52108 72.2481 8.9551L72.2509 8.95926L79.2559 19.4895L86.2591 8.96221C86.5511 8.51519 87.0109 8.07482 87.6737 8.07482C88.0843 8.07482 88.4338 8.26111 88.6727 8.56666C88.9109 8.85237 89.0087 9.19393 89.0087 9.53341V21.7707C89.0087 22.0699 88.973 22.3646 88.8816 22.6389L88.8779 22.6501C88.787 22.9097 88.6097 23.1274 88.3608 23.2657C88.1308 23.3935 87.8882 23.4271 87.6861 23.4271C87.4792 23.4271 87.2455 23.3855 87.0254 23.2561C86.7985 23.1226 86.6408 22.9277 86.5444 22.7134L86.5349 22.6922L86.5266 22.6704C86.418 22.3855 86.3758 22.0793 86.3758 21.7707V13.3715L80.5081 22.0293C80.2608 22.3796 79.8524 22.7843 79.2559 22.7843C78.6523 22.7843 78.2411 22.3936 77.9911 22.0105L72.1361 13.3715Z" fill="white"/>
<path d="M29.2491 14.0463C29.1273 13.4586 29.0098 12.8701 28.8831 12.2837C28.5517 10.7501 28.1158 9.25239 27.2627 7.91341C26.7835 7.16134 26.211 6.49018 25.5571 5.87152C24.4177 4.79347 23.089 4.06419 21.6212 3.56844C20.2176 3.09446 18.7645 2.87475 17.2852 2.89011C15.23 2.91162 13.2518 3.31877 11.377 4.17891C9.60754 4.9909 8.109 6.15371 6.91084 7.68551C5.45719 9.5438 4.54862 11.6428 4.26287 13.9879C4.16617 14.7819 4.11615 15.5893 4.1359 16.3883C4.19361 18.7131 4.84053 20.8994 5.86837 22.9692C6.36626 23.9715 6.92648 24.9484 7.52903 25.8917C8.33678 27.1567 9.28228 28.3241 10.307 29.4232C11.0714 30.2428 11.8087 31.0943 12.631 31.8525C14.0267 33.1392 15.4457 34.4052 16.9186 35.6021C18.3661 36.7782 19.8711 37.8878 21.3899 38.9717C23.7959 40.6886 26.2874 42.2778 28.8361 43.7768C29.0329 43.8926 29.1868 43.9028 29.3871 43.7781C30.6763 42.9741 31.9994 42.2207 33.2612 41.3762C35.2194 40.0656 37.1712 38.7402 39.063 37.337C40.6487 36.1603 42.1611 34.8828 43.6761 33.614C45.1841 32.3508 46.59 30.9765 47.8939 29.5023C49.4471 27.7462 50.8353 25.8733 51.9383 23.7976C52.9059 21.9775 53.622 20.071 53.9429 18.0297C54.0537 17.3239 54.1976 16.6105 54.192 15.9015C54.1784 14.1753 53.9989 12.4717 53.059 10.9465C52.4808 10.0083 51.7226 9.27313 50.6924 8.86138C49.1403 8.24092 47.5889 8.21122 46.0845 9.01092C45.0938 9.5374 44.4495 10.3993 43.9636 11.3821C43.714 11.8871 43.5096 12.4143 43.2818 12.9388C43.0486 12.3903 42.8357 11.8366 42.581 11.303C42.2296 10.566 41.8094 9.88078 41.1543 9.35098C40.4435 8.7761 39.6368 8.45448 38.7482 8.32978C37.5729 8.16512 36.4263 8.28497 35.3466 8.80632C33.922 9.49412 33.0527 10.638 32.6769 12.157C32.1882 14.1315 32.6758 15.935 33.6814 17.6412C34.5297 19.0808 35.6278 20.3053 36.9232 21.3529C38.3881 22.5375 40.0139 23.4596 41.8084 24.0263C43.419 24.5348 45.0669 24.9261 46.6983 25.3699C46.7665 25.3886 46.833 25.4142 46.8904 25.4331C45.9983 25.4331 45.0982 25.4464 44.1988 25.4303C42.4497 25.399 40.7362 25.1545 39.0861 24.5415C36.612 23.6224 34.4237 22.275 32.702 20.25C31.3317 18.6386 30.4896 16.7782 30.2018 14.6772C29.9507 12.8448 30.2287 11.0992 31.1491 9.48746C31.6801 8.55768 32.4034 7.78077 33.291 7.1662C34.849 6.08764 36.5815 5.59522 38.4674 5.69202C40.2065 5.78138 41.7499 6.38135 43.0122 7.61151C43.1967 7.79127 43.3085 7.81124 43.5027 7.61458C44.6644 6.4382 46.0829 5.77549 47.7195 5.5691C48.5606 5.46309 49.4001 5.47052 50.2374 5.61776C53.1452 6.12912 55.0818 7.85272 56.2995 10.4656C56.8564 11.6612 57.1537 12.9267 57.3027 14.235C57.4446 15.4787 57.3822 16.7147 57.2573 17.9533C57.0934 19.5791 56.7043 21.1562 56.1174 22.6724C55.6964 23.7597 55.196 24.8242 54.6399 25.8497C53.0487 28.7845 50.9415 31.3342 48.6039 33.7021C47.3501 34.9722 46.0552 36.1982 44.6713 37.3277C44.0147 37.8637 43.359 38.4017 42.6903 38.9225C41.3954 39.9312 40.1226 40.9721 38.7836 41.9191C37.2458 43.0068 35.6611 44.0309 34.069 45.0385C32.6661 45.9263 31.2255 46.7547 29.7996 47.6056C29.393 47.8481 29 47.9287 28.5445 47.6496C27.1178 46.7757 25.6415 45.9793 24.2387 45.0695C22.2761 43.7966 20.3469 42.4704 18.432 41.1263C16.4933 39.7653 14.6526 38.276 12.8629 36.7237C11.3834 35.4403 9.98281 34.0759 8.65203 32.6412C7.07192 30.9381 5.63392 29.1238 4.40729 27.1467C2.98493 24.8539 1.92323 22.4156 1.37609 19.7648C1.01082 17.9956 0.908986 16.2093 1.08213 14.416C1.33351 11.8118 2.13101 9.3858 3.58671 7.19258C4.94904 5.13993 6.72974 3.5413 8.87058 2.33163C10.1439 1.61208 11.4991 1.08995 12.9194 0.76244C14.5885 0.378337 16.2868 0.275654 17.9985 0.387044C19.1618 0.46284 20.3112 0.637223 21.4245 0.969856C23.2527 1.51605 24.9228 2.37209 26.3026 3.71696C26.7907 4.19273 27.3107 4.66364 27.6816 5.22546C28.4208 6.34576 29.0354 7.54365 29.3104 8.877C29.6388 10.4692 29.5867 12.0674 29.3368 13.665C29.3171 13.791 29.314 13.9195 29.3032 14.047C29.2853 14.047 29.2673 14.0465 29.2494 14.0463H29.2491Z" fill="white" stroke="white" stroke-width="0.5"/>
</svg>
