<svg width="24" height="25" viewBox="0 0 24 25" fill="none" xmlns="http://www.w3.org/2000/svg">
<path opacity="0.32" d="M2.32694 4.45699C2.42248 3.63329 2.9222 2.95328 3.73187 2.77422C4.9948 2.49492 7.44275 2.17041 12 2.17041C16.5573 2.17041 19.0052 2.49492 20.2682 2.77422C21.0778 2.95328 21.5775 3.63329 21.673 4.45699C21.8176 5.70261 22 7.75406 22 10.1704C22 14.6846 19.6175 18.9086 15.6037 20.9744C14.2629 21.6644 12.9543 22.1704 12 22.1704C11.0457 22.1704 9.7371 21.6644 8.3963 20.9744C4.38247 18.9086 2 14.6846 2 10.1704C2 7.75406 2.18247 5.70261 2.32694 4.45699Z" fill="#C3D5E1"/>
<path fill-rule="evenodd" clip-rule="evenodd" d="M9.12105 7.92421C9.1895 6.38396 10.4582 5.17041 12 5.17041C13.5418 5.17041 14.8105 6.38396 14.879 7.92421L14.9386 9.26721L15.0076 9.27306C15.8102 9.34241 16.3768 9.90051 16.4377 10.7038C16.4735 11.1761 16.5 11.8148 16.5 12.6704C16.5 13.526 16.4735 14.1647 16.4377 14.637C16.3768 15.4403 15.8102 15.9984 15.0076 16.0678C14.3596 16.1238 13.3997 16.1704 12 16.1704C10.6003 16.1704 9.6404 16.1238 8.9924 16.0678C8.18975 15.9984 7.62325 15.4403 7.56235 14.637C7.52655 14.1647 7.5 13.526 7.5 12.6704C7.5 11.8889 7.519 11.2883 7.54565 10.8302C7.5963 9.96066 8.19675 9.34331 9.0614 9.26631L9.12105 7.92421ZM12.8809 8.01301L12.9327 9.17796C12.6459 9.17311 12.3356 9.17041 12 9.17041C11.6648 9.17041 11.3544 9.17311 11.0673 9.17791L11.1191 8.01306C11.14 7.54171 11.5283 7.17041 12 7.17041C12.4717 7.17041 12.86 7.54171 12.8809 8.01301ZM13 12.1704C13 12.5793 12.7545 12.9309 12.403 13.0859L12.4734 13.7119C12.4908 13.8666 12.4655 14.0357 12.3258 14.1042C12.2501 14.1414 12.1446 14.1704 12 14.1704C11.8554 14.1704 11.7499 14.1414 11.6742 14.1042C11.5345 14.0357 11.5092 13.8666 11.5266 13.7119L11.597 13.0859C11.2455 12.9309 11 12.5793 11 12.1704C11 11.6181 11.4477 11.1704 12 11.1704C12.5523 11.1704 13 11.6181 13 12.1704Z" fill="#C3D5E1"/>
</svg>
