<svg width="24" height="25" viewBox="0 0 24 25" fill="none" xmlns="http://www.w3.org/2000/svg">
<path opacity="0.32" fill-rule="evenodd" clip-rule="evenodd" d="M14.2793 2.32241C13.9093 2.17041 13.4393 2.17041 12.5003 2.17041C11.5613 2.17041 11.0913 2.17041 10.7213 2.32241C10.2288 2.52462 9.8367 2.91418 9.63132 3.40541C9.53732 3.62841 9.50132 3.88941 9.48632 4.26841C9.47965 4.54301 9.40305 4.81138 9.26376 5.04813C9.12448 5.28488 8.92711 5.48219 8.69032 5.62141C8.44906 5.75551 8.17786 5.82656 7.90184 5.82795C7.62582 5.82935 7.35392 5.76106 7.11132 5.62941C6.77332 5.45141 6.52832 5.35341 6.28632 5.32141C5.75687 5.25189 5.22139 5.39421 4.79632 5.71741C4.47832 5.95941 4.24332 6.36341 3.77432 7.17041C3.30432 7.97741 3.07032 8.38041 3.01732 8.77541C2.94732 9.30141 3.09132 9.83341 3.41732 10.2544C3.56532 10.4464 3.77432 10.6074 4.09732 10.8094C4.57432 11.1064 4.88032 11.6124 4.88032 12.1704C4.88032 12.7284 4.57432 13.2344 4.09832 13.5304C3.77432 13.7334 3.56532 13.8944 3.41632 14.0864C3.2554 14.2944 3.13728 14.5321 3.0688 14.786C3.00031 15.0398 2.98282 15.3048 3.01732 15.5654C3.07032 15.9594 3.30432 16.3634 3.77432 17.1704L3.77993 17.18C4.24618 17.9806 4.47958 18.3814 4.79632 18.6234C5.22032 18.9464 5.75632 19.0884 6.28632 19.0194C6.52832 18.9874 6.77332 18.8894 7.11132 18.7114C7.35404 18.5796 7.62613 18.5112 7.90234 18.5126C8.17855 18.514 8.44994 18.5851 8.69132 18.7194C9.17732 18.9994 9.46532 19.5144 9.48632 20.0724C9.50132 20.4524 9.53732 20.7124 9.63132 20.9354C9.83532 21.4254 10.2273 21.8154 10.7213 22.0184C11.0913 22.1704 11.5613 22.1704 12.5003 22.1704C13.4393 22.1704 13.9093 22.1704 14.2793 22.0184C14.7719 21.8162 15.1639 21.4266 15.3693 20.9354C15.4633 20.7124 15.4993 20.4524 15.5143 20.0724C15.5343 19.5144 15.8233 18.9984 16.3103 18.7194C16.5516 18.5853 16.8228 18.5143 17.0988 18.5129C17.3748 18.5115 17.6467 18.5798 17.8893 18.7114C18.2273 18.8894 18.4723 18.9874 18.7143 19.0194C19.2443 19.0894 19.7803 18.9464 20.2043 18.6234C20.5223 18.3814 20.7573 17.9774 21.2263 17.1704C21.6963 16.3634 21.9303 15.9604 21.9833 15.5654C22.0177 15.3047 22 15.0397 21.9314 14.7859C21.8627 14.532 21.7444 14.2943 21.5833 14.0864C21.4353 13.8944 21.2263 13.7334 20.9033 13.5314C20.4263 13.2344 20.1203 12.7284 20.1203 12.1704C20.1203 11.6124 20.4263 11.1064 20.9023 10.8104C21.2263 10.6074 21.4353 10.4464 21.5843 10.2544C21.7452 10.0465 21.8633 9.8087 21.9318 9.55484C22.0003 9.30098 22.0178 9.03607 21.9833 8.77541C21.9303 8.38141 21.6963 7.97741 21.2263 7.17041L21.2207 7.16076C20.7545 6.36021 20.521 5.95944 20.2043 5.71741C19.7792 5.39421 19.2438 5.25189 18.7143 5.32141C18.4723 5.35341 18.2273 5.45141 17.8893 5.62941C17.6466 5.76124 17.3745 5.82963 17.0983 5.82823C16.8221 5.82683 16.5507 5.75569 16.3093 5.62141C16.0727 5.48207 15.8755 5.2847 15.7364 5.04796C15.5973 4.81122 15.5209 4.54292 15.5143 4.26841C15.4993 3.88841 15.4633 3.62841 15.3693 3.40541C15.2677 3.16215 15.1191 2.94129 14.9321 2.75547C14.745 2.56964 14.5232 2.42249 14.2793 2.32241ZM15.5226 12.1704C15.5226 13.8274 14.1686 15.1704 12.4996 15.1704C10.8296 15.1704 9.47656 13.8274 9.47656 12.1704C9.47656 10.5134 10.8296 9.17041 12.4996 9.17041C14.1696 9.17041 15.5226 10.5134 15.5226 12.1704Z" fill="#C3D5E1"/>
<path d="M15.5226 12.1704C15.5226 13.8274 14.1686 15.1704 12.4996 15.1704C10.8296 15.1704 9.47656 13.8274 9.47656 12.1704C9.47656 10.5134 10.8296 9.17041 12.4996 9.17041C14.1696 9.17041 15.5226 10.5134 15.5226 12.1704Z" fill="#C3D5E1"/>
</svg>
