<svg width="24" height="25" viewBox="0 0 24 25" fill="none" xmlns="http://www.w3.org/2000/svg">
<path opacity="0.32" d="M21.1808 17.1407C20.8971 17.7959 20.2225 18.1704 19.5086 18.1704H14.8154C14.8462 18.0849 14.8735 17.9973 14.8971 17.9077C15.1709 16.8678 14.8825 15.8094 14.2214 15.0667C14.4654 13.0795 14.6177 11.0437 14.7108 9.43557C14.7569 8.63772 13.7795 8.37122 13.4274 9.08567C12.7178 10.5257 11.8493 12.3662 11.0842 14.2114C10.1467 14.5183 9.3768 15.2881 9.10295 16.328C8.93642 16.9603 8.97782 17.5995 9.18451 18.1704H4.49141C3.77747 18.1704 3.10288 17.7959 2.81918 17.1407C2.29212 15.9237 2 14.5812 2 13.1704C2 7.64756 6.47715 3.17041 12 3.17041C17.5229 3.17041 22 7.64756 22 13.1704C22 14.5812 21.7079 15.9237 21.1808 17.1407Z" fill="#C3D5E1"/>
<path d="M14.7108 9.43557C14.7569 8.63772 13.7795 8.37122 13.4274 9.08567C12.7178 10.5257 11.8493 12.3662 11.0842 14.2114C10.1467 14.5183 9.3768 15.2881 9.10295 16.328C8.6742 17.956 9.62375 19.6294 11.2238 20.0657C12.8238 20.5019 14.4684 19.5358 14.8971 17.9077C15.1709 16.8678 14.8825 15.8094 14.2214 15.0667C14.4654 13.0795 14.6177 11.0437 14.7108 9.43557Z" fill="#C3D5E1"/>
</svg>
