<svg width="87" height="88" viewBox="0 0 87 88" fill="none" xmlns="http://www.w3.org/2000/svg">
<path fill-rule="evenodd" clip-rule="evenodd" d="M47.7505 0V0.0872155V8.80876C66.8943 11.1636 80.4564 28.5631 78.1015 47.7069C76.0956 63.5801 63.6238 76.1827 47.7505 78.0579V86.7794C71.7348 84.381 89.1779 63.1004 86.7795 39.1161C84.8171 18.4025 68.377 2.04956 47.7505 0ZM39.029 0.131006C30.5254 0.959553 22.4144 4.23013 15.786 9.72471L22.0219 16.1787C26.906 12.254 32.7931 9.72471 39.029 8.85256V0.131006ZM9.63731 15.8732C4.14274 22.5016 0.872155 30.569 0 39.1161H8.72155C9.5501 32.9238 11.9921 27.0368 15.8732 22.1091L9.63731 15.8732ZM58.6524 28.214L37.3718 49.4945L28.127 40.2497L23.5046 44.8721L37.3718 58.7394L63.2748 32.8364L58.6524 28.214ZM0.0436716 47.8376C0.915827 56.3847 4.27362 64.4521 9.68098 71.0805L15.8733 64.8446C12.0358 59.9169 9.55016 54.0299 8.76522 47.8376H0.0436716ZM22.0219 71.2552L15.786 77.2294C22.3708 82.724 30.4818 86.169 39.029 87.0848V78.3632C32.8367 77.5783 26.9496 75.0927 22.0219 71.2552Z" fill="#34A853"/>
</svg>
