<svg width="24" height="25" viewBox="0 0 24 25" fill="none" xmlns="http://www.w3.org/2000/svg">
<path opacity="0.32" d="M22 10.6704C22 13.3762 21.9268 15.4963 21.8596 16.8722C21.8139 17.8089 20.9066 18.4814 19.9771 18.3561C18.4531 18.1507 15.8791 17.9204 12 17.9204C8.1209 17.9204 5.54695 18.1507 4.02285 18.3561C3.09341 18.4814 2.18614 17.8089 2.14039 16.8722C2.07321 15.4963 2 13.3762 2 10.6704C2 7.96468 2.07321 5.84458 2.14039 4.4687C2.18614 3.53197 3.09341 2.8595 4.02285 2.98474C5.54695 3.19011 8.1209 3.42043 12 3.42043C15.8791 3.42043 18.4531 3.19011 19.9771 2.98474C20.9066 2.8595 21.8139 3.53197 21.8596 4.4687C21.9268 5.84458 22 7.96468 22 10.6704Z" fill="#C3D5E1"/>
<path d="M5.59096 18.1801C5.28385 18.9128 4.94579 19.781 4.65668 20.6705C4.5685 20.9418 4.73269 21.2281 5.01662 21.2557C5.48092 21.3008 5.97612 21.2796 6.35562 21.2471C6.76872 21.2117 7.13172 20.9754 7.35657 20.6271C7.94702 19.7125 8.51881 18.7598 8.97868 17.9713C7.63073 18.0188 6.50815 18.095 5.59096 18.1801Z" fill="#C3D5E1"/>
<path d="M15.022 17.9713C15.4818 18.7599 16.0536 19.7125 16.6441 20.6271C16.8689 20.9754 17.2319 21.2117 17.645 21.2471C18.0245 21.2796 18.5197 21.3008 18.984 21.2557C19.268 21.2281 19.4321 20.9418 19.344 20.6705C19.0549 19.781 18.7168 18.9129 18.4097 18.1801C17.4925 18.0951 16.37 18.0188 15.022 17.9713Z" fill="#C3D5E1"/>
</svg>
