<svg width="24" height="25" viewBox="0 0 24 25" fill="none" xmlns="http://www.w3.org/2000/svg">
<path opacity="0.32" d="M2.28099 19.8279C2.36966 20.6865 2.93261 21.3662 3.77688 21.5459C5.1095 21.8296 7.6216 22.1704 12 22.1704C16.3784 22.1704 18.8905 21.8296 20.2232 21.5459C21.0674 21.3662 21.6304 20.6865 21.719 19.8279C21.8505 18.5548 22 16.2174 22 12.1704C22 8.12346 21.8505 5.78601 21.719 4.51292C21.6304 3.6543 21.0674 2.97465 20.2231 2.79492C18.8905 2.51122 16.3784 2.17041 12 2.17041C7.6216 2.17041 5.1095 2.51122 3.77688 2.79492C2.93261 2.97465 2.36966 3.6543 2.28099 4.51292C2.14952 5.78601 2 8.12346 2 12.1704C2 16.2174 2.14952 18.5548 2.28099 19.8279Z" fill="#C3D5E1"/>
<path d="M13.9382 14.0263C15.263 13.3287 16.1663 11.9384 16.1663 10.3371C16.1663 8.03591 14.3008 6.17041 11.9996 6.17041C9.69841 6.17041 7.83291 8.03591 7.83291 10.3371C7.83291 11.9384 8.73626 13.3288 10.0612 14.0264C8.28691 14.7024 6.93216 16.2796 6.51251 18.2233C6.45446 18.4923 6.60246 18.7685 6.87341 18.8175C7.84581 18.9935 9.45616 19.1704 12.0006 19.1704C14.545 19.1704 16.1554 18.9935 17.1278 18.8175C17.3977 18.7687 17.5454 18.4936 17.4876 18.2255C17.0685 16.2807 15.7133 14.7025 13.9382 14.0263Z" fill="#C3D5E1"/>
</svg>
