<svg width="18" height="18" viewBox="0 0 18 18" fill="none" xmlns="http://www.w3.org/2000/svg">
<g clip-path="url(#clip0_44_7011)">
<path d="M16.5 0H13.5C13.3011 0 13.1103 0.0790176 12.9697 0.21967C12.829 0.360322 12.75 0.551088 12.75 0.75C12.75 0.948912 12.829 1.13968 12.9697 1.28033C13.1103 1.42098 13.3011 1.5 13.5 1.5H15.4395L13.6395 3.3C12.8187 2.68011 11.8326 2.31731 10.8057 2.25737C9.7788 2.19744 8.75718 2.44307 7.86978 2.96325C7.20095 2.57677 6.45496 2.3429 5.6852 2.27836C4.91544 2.21382 4.14093 2.32021 3.41708 2.58992C2.69323 2.85962 2.03794 3.28598 1.49809 3.83848C0.958236 4.39099 0.547172 5.05598 0.294304 5.78588C0.0414355 6.51578 -0.0469853 7.29255 0.0353673 8.06061C0.11772 8.82867 0.368811 9.56903 0.770674 10.2287C1.17254 10.8884 1.71524 11.4512 2.35995 11.8767C3.00467 12.3021 3.73545 12.5799 4.50003 12.69V14.25H3.00003C2.80111 14.25 2.61035 14.329 2.4697 14.4697C2.32904 14.6103 2.25003 14.8011 2.25003 15C2.25003 15.1989 2.32904 15.3897 2.4697 15.5303C2.61035 15.671 2.80111 15.75 3.00003 15.75H4.50003V17.25C4.50003 17.4489 4.57904 17.6397 4.7197 17.7803C4.86035 17.921 5.05111 18 5.25003 18C5.44894 18 5.6397 17.921 5.78036 17.7803C5.92101 17.6397 6.00003 17.4489 6.00003 17.25V15.75H7.50003C7.69894 15.75 7.8897 15.671 8.03036 15.5303C8.17101 15.3897 8.25003 15.1989 8.25003 15C8.25003 14.8011 8.17101 14.6103 8.03036 14.4697C7.8897 14.329 7.69894 14.25 7.50003 14.25H6.00003V12.6952C6.65932 12.597 7.29358 12.3729 7.86828 12.0353C8.91318 12.6464 10.1375 12.8769 11.3331 12.6876C12.5287 12.4982 13.6219 11.9008 14.4268 10.9966C15.2318 10.0926 15.6988 8.93762 15.7486 7.72813C15.7984 6.51864 15.4279 5.32922 14.7 4.362L16.5 2.562V4.5C16.5 4.69891 16.579 4.88968 16.7197 5.03033C16.8603 5.17098 17.0511 5.25 17.25 5.25C17.4489 5.25 17.6397 5.17098 17.7804 5.03033C17.921 4.88968 18 4.69891 18 4.5V1.5C18 1.10218 17.842 0.720644 17.5607 0.43934C17.2794 0.158035 16.8979 0 16.5 0ZM1.50003 7.5C1.49647 6.89089 1.64221 6.29018 1.92451 5.75042C2.2068 5.21066 2.61704 4.74828 3.11936 4.40374C3.62167 4.05919 4.20076 3.84297 4.80596 3.77398C5.41117 3.70499 6.02406 3.78534 6.59103 4.008C5.72773 4.96622 5.24998 6.21025 5.24998 7.5C5.24998 8.78975 5.72773 10.0338 6.59103 10.992C6.02406 11.2147 5.41117 11.295 4.80596 11.226C4.20076 11.157 3.62167 10.9408 3.11936 10.5963C2.61704 10.2517 2.2068 9.78934 1.92451 9.24958C1.64221 8.70982 1.49647 8.10911 1.50003 7.5ZM10.5 11.25C9.75835 11.25 9.03332 11.0301 8.41664 10.618C7.79995 10.206 7.31931 9.62029 7.03548 8.93506C6.75165 8.24984 6.67739 7.49584 6.82208 6.76841C6.96678 6.04098 7.32393 5.3728 7.84838 4.84835C8.37282 4.3239 9.04101 3.96675 9.76844 3.82206C10.4959 3.67736 11.2499 3.75162 11.9351 4.03545C12.6203 4.31928 13.206 4.79993 13.618 5.41661C14.0301 6.0333 14.25 6.75832 14.25 7.5C14.2488 8.4942 13.8534 9.44733 13.1504 10.1503C12.4474 10.8533 11.4942 11.2488 10.5 11.25Z" fill="#637381"/>
</g>
<defs>
<clipPath id="clip0_44_7011">
<rect width="18" height="18" fill="white"/>
</clipPath>
</defs>
</svg>
